<svg width="24" height="24" viewBox="0 0 24 24" fill="none" xmlns="http://www.w3.org/2000/svg">
<path d="M10.1634 6.00015C10.325 6.00076 10.4848 6.03402 10.6332 6.09792C10.7816 6.16181 10.9156 6.25504 11.0271 6.37199L15.6571 11.17C15.8769 11.3942 16 11.6956 16 12.0096C16 12.3236 15.8769 12.625 15.6571 12.8493L10.8591 17.6472C10.7473 17.7591 10.6145 17.8478 10.4684 17.9083C10.3223 17.9688 10.1657 18 10.0075 18C9.84933 18 9.69272 17.9688 9.54659 17.9083C9.40047 17.8478 9.26769 17.7591 9.15586 17.6472C9.04402 17.5354 8.9553 17.4026 8.89477 17.2565C8.83425 17.1104 8.80309 16.9538 8.80309 16.7956C8.80309 16.6374 8.83425 16.4808 8.89477 16.3347C8.9553 16.1886 9.04402 16.0558 9.15585 15.944L13.1142 11.9976L9.29979 8.03929C9.07639 7.81455 8.95099 7.51053 8.95099 7.19365C8.95099 6.87676 9.07639 6.57274 9.29979 6.348C9.4133 6.23539 9.54817 6.1466 9.69648 6.08686C9.8448 6.02712 10.0036 5.99764 10.1634 6.00015Z" fill="#3C3BAA"/>
</svg>
