<svg width="24" height="24" viewBox="0 0 24 24" fill="none" xmlns="http://www.w3.org/2000/svg">
<g clip-path="url(#clip0_14335_7173)">
<path d="M18.6131 0H5.38691C2.4118 0 0 2.4118 0 5.38691V18.6131C0 21.5882 2.4118 24 5.38691 24H18.6131C21.5882 24 24 21.5882 24 18.6131V5.38691C24 2.4118 21.5882 0 18.6131 0Z" fill="#FF3635"/>
<path fill-rule="evenodd" clip-rule="evenodd" d="M5 7.70263V16.298L9.35673 12.004L5 7.70263ZM5.71229 17H18.2877L13.9316 12.7066L12.8733 13.7514C12.4014 14.2704 11.5986 14.2704 11.1267 13.7514L10.0684 12.7066L5.71229 17ZM19 16.298V7.70262L14.6433 12.004L19 16.298ZM18.2883 7H5.71168L11.84 13.0504L11.8524 13.0627L11.864 13.0757C11.9402 13.1623 12.0598 13.1623 12.136 13.0757L12.1476 13.0627L12.16 13.0504L18.2883 7Z" fill="white"/>
</g>
<defs>
<clipPath id="clip0_14335_7173">
<rect width="24" height="24" fill="white"/>
</clipPath>
</defs>
</svg>
