<svg width="24" height="24" viewBox="0 0 24 24" fill="none" xmlns="http://www.w3.org/2000/svg">
<g clip-path="url(#clip0_14335_7137)">
<path d="M21 0H3C1.3455 0 0 1.3455 0 3V21C0 22.6545 1.3455 24 3 24H21C22.6545 24 24 22.6545 24 21V3C24 1.3455 22.6545 0 21 0Z" fill="#1976D2"/>
<path fill-rule="evenodd" clip-rule="evenodd" d="M20.25 12H16.5V9C16.5 8.172 17.172 8.25 18 8.25H19.5V4.5H16.5C15.3065 4.5 14.1619 4.97411 13.318 5.81802C12.4741 6.66193 12 7.80653 12 9V12H9V15.75H12V24H16.5V15.75H18.75L20.25 12Z" fill="#FAFAFA"/>
</g>
<defs>
<clipPath id="clip0_14335_7137">
<rect width="24" height="24" fill="white"/>
</clipPath>
</defs>
</svg>
