<svg width="24" height="24" viewBox="0 0 24 24" fill="none" xmlns="http://www.w3.org/2000/svg">
<g clip-path="url(#clip0_14335_7164)">
<path d="M18.6131 0H5.38691C2.4118 0 0 2.4118 0 5.38691V18.6131C0 21.5882 2.4118 24 5.38691 24H18.6131C21.5882 24 24 21.5882 24 18.6131V5.38691C24 2.4118 21.5882 0 18.6131 0Z" fill="#0B86CA"/>
<path d="M6.65019 9.97566H9.14412V18.0228H6.65019V9.97566ZM7.92209 5.97705C8.20783 5.97706 8.48716 6.06168 8.72485 6.22026C8.96254 6.37884 9.14794 6.60426 9.25766 6.86809C9.36738 7.13191 9.3965 7.42232 9.34136 7.70269C9.28622 7.98305 9.14928 8.2408 8.94782 8.44342C8.74635 8.64604 8.48939 8.78446 8.20935 8.8412C7.92931 8.89795 7.63874 8.87049 7.37428 8.76228C7.10983 8.65408 6.88335 8.46997 6.72342 8.23319C6.56348 7.99642 6.47725 7.71758 6.47561 7.43185C6.47451 7.24119 6.51112 7.05221 6.58332 6.87575C6.65552 6.69929 6.7619 6.53885 6.89633 6.40365C7.03075 6.26845 7.19058 6.16116 7.36662 6.08795C7.54266 6.01474 7.73144 5.97705 7.92209 5.97705Z" fill="white"/>
<path d="M10.7407 9.97594H13.1432V11.0733C13.3837 10.6629 13.7311 10.3254 14.1484 10.097C14.5657 9.86863 15.0371 9.75782 15.5125 9.77642C18.0064 9.77642 18.5135 11.4391 18.5135 13.6088V18.023H16.0196V14.1325C16.0196 13.2014 16.0196 11.996 14.7227 11.996C13.4259 11.996 13.2264 13.0102 13.2264 14.0577V18.0397H10.7324L10.7407 9.97594Z" fill="white"/>
</g>
<defs>
<clipPath id="clip0_14335_7164">
<rect width="24" height="24" fill="white"/>
</clipPath>
</defs>
</svg>
