<svg width="24" height="24" viewBox="0 0 24 24" fill="none" xmlns="http://www.w3.org/2000/svg">
<g clip-path="url(#clip0_14335_7155)">
<path d="M18.88 0H5.11999C2.2923 0 0 2.2923 0 5.11999V18.88C0 21.7077 2.2923 24 5.11999 24H18.88C21.7077 24 24 21.7077 24 18.88V5.11999C24 2.2923 21.7077 0 18.88 0Z" fill="#0A93E2"/>
<path fill-rule="evenodd" clip-rule="evenodd" d="M19.3008 8.35896C18.7838 8.58814 18.2271 8.74359 17.644 8.81297C18.2397 8.45556 18.6967 7.89047 18.9132 7.21696C18.3554 7.54702 17.7376 7.78748 17.0807 7.91685C16.5545 7.3558 15.8043 7.00586 14.9743 7.00586C13.3804 7.00586 12.0895 8.2982 12.0895 9.89071C12.0895 10.1166 12.1145 10.3375 12.1639 10.5486C9.76641 10.4278 7.64006 9.27934 6.21749 7.53329C5.96849 7.95986 5.82677 8.45556 5.82677 8.98405C5.82677 9.9854 6.33612 10.8689 7.10944 11.3858C6.63658 11.3711 6.19226 11.2408 5.80252 11.0243C5.80252 11.037 5.80252 11.0486 5.80252 11.0612C5.80252 12.4585 6.79737 13.6246 8.11694 13.8896C7.87541 13.9557 7.62017 13.9915 7.35737 13.9915C7.17157 13.9915 6.9908 13.9735 6.81408 13.9399C7.18202 15.0862 8.2474 15.9202 9.51016 15.9433C8.52254 16.7176 7.2786 17.1778 5.9265 17.1778C5.69306 17.1778 5.46312 17.1652 5.23828 17.138C6.51477 17.9564 8.0309 18.4344 9.66024 18.4344C14.9671 18.4344 17.8699 14.0375 17.8699 10.225C17.8699 10.1 17.8667 9.97593 17.8616 9.85195C18.4256 9.44529 18.9143 8.93692 19.3008 8.35895L19.3008 8.35896Z" fill="white"/>
</g>
<defs>
<clipPath id="clip0_14335_7155">
<rect width="24" height="24" fill="white"/>
</clipPath>
</defs>
</svg>
